<svg version="1.0" xmlns="http://www.w3.org/2000/svg" width="581.333" height="598.667" viewBox="0 0 436 449"><path d="M217.7 218.7c.3 31.8.9 58.5 1.4 59.3.5.9.6.2.2-1.9-.4-2.3-.3-3.2.5-2.8.6.5.8 0 .5-1.3-.4-1.4 0-2 1.1-2 1 0 1.5-.4 1.2-.9-.4-.5 0-1.2.6-1.4 1-.4.9-.6-.1-.6-1.1-.1-1-.6.4-2.1 1-1.1 1.5-2 1.1-2-.4 0 0-.7.9-1.6 1.3-1.3 1.3-1.9.3-3.2-1.1-1.3-1.1-1.4 0-.8.9.5 1.3.3 1.1-.5-.3-2 1.2-5 2.1-4.4.9.6 4.4-2.5 3.6-3.2-.2-.3-1.5 0-2.8.6-2 1-2.1 1-.4-.1 2.6-1.7 8.6-8.1 8.6-9.2 0-.4-.7-.5-1.6-.2-.9.3-1.2.2-.8-.5.3-.6 1.5-.9 2.5-.6 1 .3 2.2.1 2.5-.4.3-.5 0-.9-.7-.9s-.2-.9 1.1-2 2-2 1.5-2c-.4 0-.2-.6.4-1.3.6-.8.8-1.7.5-2-.4-.4.5-1.1 2-1.6 1.6-.7 2.6-1.8 2.6-3.1 0-1.2.4-1.9.9-1.6.5.3 1.4-.1 2.1-.9.7-.8 1.7-1.2 2.4-.8.6.4.5-.1-.3-1-.9-1.1-1-1.7-.2-1.7.6 0 1.1-1 1.1-2.3 0-1.8.2-1.9 1-.7.9 1.3 1 1.3 1.1 0 .1-.8.1-1.8 0-2.2 0-.4.9-1 2-1.3 1.2-.4 1.8-1.2 1.5-2.1-.3-.8-.1-1.4.5-1.4 1.4 0 3.3-2 4.2-4.3.4-1.1 1.6-2.1 2.7-2.4 2.3-.6 2.5-1.4.8-3.2-.8-.9-.9-1.2-.1-.7 1.4.8 4.3-.3 4.3-1.6 0-.5-.4-.6-1-.3-.5.3-1 .1-1-.4 0-.6.6-1.1 1.3-1.1.8 0 .7-.4-.3-1-1.6-1-.8-1.4 2.4-1 1.4.1 1.7-.3 1.3-1.5-.4-.9-.3-1.4.3-1 .6.3 1 .1 1-.4 0-.6.8-1.1 1.8-1.2 1 0 1.2-.3.5-.6-2.1-.8-1.5-2.2.8-1.8 1.7.3 1.9.1.9-1-.9-1-.7-1.5 1-2 1.1-.3 1.8-1.1 1.4-1.6-.3-.6.4-1.9 1.6-2.9 1.3-1.1 1.9-2.4 1.4-3.1-.4-.8-.3-.9.4-.5s1.2.2 1.2-.3c0-.6.7-1.1 1.6-1.1.8 0 1.2-.5.9-1-.3-.6 0-1 .7-1 1.8 0 3.5-3 3.3-5.7-.1-1.9.1-2.1 1.4-1 .9.8 1.2.8.8.1-.4-.7 0-1.5.9-1.8.8-.3 1.3-1 1-1.5-.4-.5 0-1.2.6-1.4.7-.3-17.2-.6-39.9-.6l-41.2-.1.6 57.7zM294 163c0 .5-.5 1-1.1 1-.5 0-.7-.5-.4-1 .3-.6.8-1 1.1-1 .2 0 .4.4.4 1zm-1.5 7c-.3.5-1.2 1-1.8 1-.7 0-.6-.4.3-1 1.9-1.2 2.3-1.2 1.5 0z"/></svg>