<?xml version="1.0" standalone="no"?>
<!DOCTYPE svg PUBLIC "-//W3C//DTD SVG 20010904//EN"
 "http://www.w3.org/TR/2001/REC-SVG-20010904/DTD/svg10.dtd">
<svg version="1.0" xmlns="http://www.w3.org/2000/svg"
 width="436.000000pt" height="449.000000pt" viewBox="0 0 436.000000 449.000000"
 preserveAspectRatio="xMidYMid meet">

<g transform="translate(0.000000,449.000000) scale(0.100000,-0.100000)"
fill="#000000" stroke="none">
<path d="M2177 2303 c3 -318 9 -585 14 -593 5 -9 6 -2 2 19 -4 23 -3 32 5 28
6 -5 8 0 5 13 -4 14 0 20 11 20 10 0 15 4 12 9 -4 5 0 12 6 14 10 4 9 6 -1 6
-11 1 -10 6 4 21 10 11 15 20 11 20 -4 0 0 7 9 16 13 13 13 19 3 32 -11 13
-11 14 0 8 9 -5 13 -3 11 5 -3 20 12 50 21 44 9 -6 44 25 36 32 -2 3 -15 0
-28 -6 -20 -10 -21 -10 -4 1 26 17 86 81 86 92 0 4 -7 5 -16 2 -9 -3 -12 -2
-8 5 3 6 15 9 25 6 10 -3 22 -1 25 4 3 5 0 9 -7 9 -7 0 -2 9 11 20 13 11 20
20 15 20 -4 0 -2 6 4 13 6 8 8 17 5 20 -4 4 5 11 20 16 16 7 26 18 26 31 0 12
4 19 9 16 5 -3 14 1 21 9 7 8 17 12 24 8 6 -4 5 1 -3 10 -9 11 -10 17 -2 17 6
0 11 10 11 23 0 18 2 19 10 7 9 -13 10 -13 11 0 1 8 1 18 0 22 0 4 9 10 20 13
12 4 18 12 15 21 -3 8 -1 14 5 14 14 0 33 20 42 43 4 11 16 21 27 24 23 6 25
14 8 32 -8 9 -9 12 -1 7 14 -8 43 3 43 16 0 5 -4 6 -10 3 -5 -3 -10 -1 -10 4
0 6 6 11 13 11 8 0 7 4 -3 10 -16 10 -8 14 24 10 14 -1 17 3 13 15 -4 9 -3 14
3 10 6 -3 10 -1 10 4 0 6 8 11 18 12 10 0 12 3 5 6 -21 8 -15 22 8 18 17 -3
19 -1 9 10 -9 10 -7 15 10 20 11 3 18 11 14 16 -3 6 4 19 16 29 13 11 19 24
14 31 -4 8 -3 9 4 5 7 -4 12 -2 12 3 0 6 7 11 16 11 8 0 12 5 9 10 -3 6 0 10
7 10 18 0 35 30 33 57 -1 19 1 21 14 10 9 -8 12 -8 8 -1 -4 7 0 15 9 18 8 3
13 10 10 15 -4 5 0 12 6 14 7 3 -172 6 -399 6 l-412 1 6 -577z m763 557 c0 -5
-5 -10 -11 -10 -5 0 -7 5 -4 10 3 6 8 10 11 10 2 0 4 -4 4 -10z m-15 -70 c-3
-5 -12 -10 -18 -10 -7 0 -6 4 3 10 19 12 23 12 15 0z"/>
</g>
</svg>
